<?xml version="1.0" encoding="iso-8859-1"?>
<!-- Generator: Adobe Illustrator 21.0.0, SVG Export Plug-In . SVG Version: 6.00 Build 0)  -->
<svg version="1.1" id="Capa_1" xmlns="http://www.w3.org/2000/svg" xmlns:xlink="http://www.w3.org/1999/xlink" x="0px" y="0px"
	 viewBox="0 0 512 512" style="enable-background:new 0 0 512 512;" xml:space="preserve">
<g id="XMLID_979_">
	<g id="XMLID_980_">
		<g id="XMLID_981_">
			<path style="fill:#93A3AF;" d="M161.924,20.255v16.582h49.745V20.255c0-7.044-5.711-12.755-12.755-12.755h-24.235
				C167.635,7.5,161.924,13.211,161.924,20.255z"/>
			<path style="fill:#93A3AF;" d="M491.005,166.552h-16.582v126.275h16.582c7.044,0,12.755-5.711,12.755-12.755V179.307
				C503.76,172.263,498.049,166.552,491.005,166.552z"/>
			<path style="fill:#93A3AF;" d="M82.843,20.255v16.582h49.745V20.255c0-7.044-5.711-12.755-12.755-12.755H95.598
				C88.554,7.5,82.843,13.211,82.843,20.255z"/>
			<g id="XMLID_982_">
				<g id="XMLID_983_">
					<path id="XMLID_984_" style="fill:#BA6F3C;" d="M476.324,94.029v352.856c0,31.824-25.791,57.615-57.615,57.615H65.853
						c-31.824,0-57.615-25.791-57.615-57.615V94.029c0-31.824,25.791-57.615,57.615-57.615h352.856
						C450.533,36.415,476.324,62.206,476.324,94.029z"/>
					<path id="XMLID_985_" style="fill:#AA5B26;" d="M476.321,94.027v352.855c0,31.832-25.786,57.618-57.608,57.618h-26.026
						c31.822,0,57.608-25.786,57.608-57.618V94.027c0-31.822-25.786-57.608-57.608-57.608h26.026
						C450.535,36.419,476.321,62.205,476.321,94.027z"/>
				</g>
				<g id="XMLID_986_">
					<path id="XMLID_987_" style="fill:#EBEEF2;" d="M476.321,94.023v81.192H8.24V94.023c0-31.822,25.786-57.608,57.618-57.608
						h352.855C450.535,36.415,476.321,62.201,476.321,94.023z"/>
					<path id="XMLID_988_" style="fill:#D3D8DF;" d="M476.321,94.023v81.192h-26.026V94.023c0-31.822-25.786-57.608-57.608-57.608
						h26.026C450.535,36.415,476.321,62.201,476.321,94.023z"/>
				</g>
			</g>
			<circle style="fill:#93A3AF;" cx="242.281" cy="270.958" r="141.847"/>
			<path id="XMLID_989_" style="fill:#7B8C98;" d="M242.281,387.376c-64.193,0-116.418-52.225-116.418-116.418
				S178.088,154.54,242.281,154.54s116.418,52.225,116.418,116.418S306.474,387.376,242.281,387.376z"/>
			<path id="XMLID_990_" style="fill:#FAAA3C;" d="M346.691,270.955c0,57.668-46.747,104.405-104.405,104.405
				c-14.004,0-27.378-2.763-39.58-7.758c-12.653-5.195-24.064-12.793-33.654-22.232c-2.963-2.903-5.746-5.996-8.328-9.239
				c-6.346-7.898-11.542-16.747-15.375-26.286c-4.825-12.012-7.478-25.145-7.478-38.889c0-57.658,46.747-104.405,104.415-104.405
				c13.744,0,26.867,2.653,38.879,7.477c9.54,3.834,18.378,9.029,26.286,15.365c3.243,2.583,6.336,5.375,9.249,8.338
				c9.439,9.59,17.037,21.001,22.222,33.654C343.928,243.587,346.691,256.951,346.691,270.955z"/>
			<path id="XMLID_991_" style="fill:#FFCF64;" d="M307.451,189.393L160.723,336.131c-6.346-7.898-11.542-16.747-15.375-26.286
				l135.817-135.817C290.704,177.861,299.543,183.057,307.451,189.393z"/>
			<path id="XMLID_992_" style="fill:#FFCF64;" d="M338.923,231.385L202.706,367.602c-12.653-5.195-24.064-12.793-33.654-22.232
				L316.7,197.731C326.14,207.321,333.738,218.733,338.923,231.385z"/>
			<circle style="fill:#FAAA3C;" cx="392.334" cy="109.657" r="26.754"/>
		</g>
	</g>
	<g id="XMLID_993_">
		<path id="XMLID_994_" d="M491.005,159.052h-7.183V94.025c0-35.9-29.207-65.107-65.106-65.107H340.33c-4.142,0-7.5,3.358-7.5,7.5
			s3.358,7.5,7.5,7.5h78.386c27.629,0,50.106,22.478,50.106,50.107v73.689H350.093c-27.203-28.395-65.477-46.104-107.812-46.104
			s-80.608,17.708-107.812,46.104H15.74V94.025c0-27.629,22.478-50.107,50.106-50.107h241.822c4.142,0,7.5-3.358,7.5-7.5
			s-3.358-7.5-7.5-7.5h-88.5v-8.664C219.169,9.086,210.083,0,198.914,0h-24.234c-11.169,0-20.255,9.086-20.255,20.255v8.664h-14.336
			v-8.664C140.088,9.086,131.001,0,119.833,0H95.598C84.429,0,75.343,9.086,75.343,20.255v8.664h-9.496
			c-35.9,0-65.106,29.207-65.106,65.107v81.179c0,0.003,0,0.006,0,0.01s0,0.006,0,0.01v271.669c0,35.9,29.207,65.106,65.106,65.106
			h352.869c35.9,0,65.106-29.207,65.106-65.106V422.33c0-4.142-3.358-7.5-7.5-7.5s-7.5,3.358-7.5,7.5v24.563
			c0,27.629-22.478,50.106-50.106,50.106H65.847c-27.629,0-50.106-22.478-50.106-50.106V182.714h106.131
			c-18.18,24.74-28.938,55.257-28.938,88.244c0,82.35,66.997,149.347,149.347,149.347s149.347-66.997,149.347-149.347
			c0-32.986-10.758-63.503-28.938-88.244h106.132v140.955c0,4.142,3.358,7.5,7.5,7.5s7.5-3.358,7.5-7.5v-23.342h7.183
			c11.169,0,20.255-9.086,20.255-20.255V179.307C511.26,168.139,502.174,159.052,491.005,159.052z M169.424,20.255
			c0-2.897,2.357-5.255,5.255-5.255h24.234c2.898,0,5.255,2.357,5.255,5.255v8.664h-34.745V20.255z M90.343,20.255
			c0-2.897,2.357-5.255,5.255-5.255h24.235c2.897,0,5.255,2.357,5.255,5.255v8.664H90.343V20.255z M242.281,405.305
			c-74.079,0-134.347-60.268-134.347-134.347s60.268-134.347,134.347-134.347s134.347,60.268,134.347,134.347
			S316.36,405.305,242.281,405.305z M496.26,280.072c0,2.897-2.357,5.255-5.255,5.255h-7.183V174.052h7.183
			c2.898,0,5.255,2.357,5.255,5.255V280.072z"/>
		<path id="XMLID_1000_" d="M476.322,348.83c-4.142,0-7.5,3.358-7.5,7.5v33.339c0,4.142,3.358,7.5,7.5,7.5s7.5-3.358,7.5-7.5V356.33
			C483.822,352.188,480.464,348.83,476.322,348.83z"/>
		<path id="XMLID_1001_" d="M242.281,159.052c-61.705,0-111.906,50.201-111.906,111.906s50.201,111.906,111.906,111.906
			s111.906-50.201,111.906-111.906S303.986,159.052,242.281,159.052z M242.281,367.864c-53.434,0-96.906-43.472-96.906-96.906
			s43.472-96.906,96.906-96.906s96.906,43.472,96.906,96.906S295.715,367.864,242.281,367.864z"/>
		<path id="XMLID_1004_" d="M426.587,109.657c0-18.887-15.366-34.253-34.253-34.253S358.08,90.77,358.08,109.657
			c0,18.888,15.366,34.254,34.253,34.254S426.587,128.544,426.587,109.657z M373.08,109.657c0-10.616,8.637-19.253,19.253-19.253
			s19.253,8.637,19.253,19.253c0,10.617-8.637,19.254-19.253,19.254S373.08,120.273,373.08,109.657z"/>
		<path id="XMLID_1007_" d="M100.434,80.581h-38.63c-4.142,0-7.5,3.358-7.5,7.5s3.358,7.5,7.5,7.5h38.63c4.142,0,7.5-3.358,7.5-7.5
			S104.576,80.581,100.434,80.581z"/>
		<path id="XMLID_1008_" d="M100.434,102.157h-38.63c-4.142,0-7.5,3.358-7.5,7.5s3.358,7.5,7.5,7.5h38.63c4.142,0,7.5-3.358,7.5-7.5
			S104.576,102.157,100.434,102.157z"/>
		<path id="XMLID_1009_" d="M100.434,123.733h-38.63c-4.142,0-7.5,3.358-7.5,7.5s3.358,7.5,7.5,7.5h38.63c4.142,0,7.5-3.358,7.5-7.5
			S104.576,123.733,100.434,123.733z"/>
	</g>
</g>
<g>
</g>
<g>
</g>
<g>
</g>
<g>
</g>
<g>
</g>
<g>
</g>
<g>
</g>
<g>
</g>
<g>
</g>
<g>
</g>
<g>
</g>
<g>
</g>
<g>
</g>
<g>
</g>
<g>
</g>
</svg>
